<svg width="1024" height="1024" viewBox="0 0 1024 1024" fill="none" xmlns="http://www.w3.org/2000/svg">
<rect width="1024" height="1024" fill="#007EBB"/>
<path fill-rule="evenodd" clip-rule="evenodd" d="M776.389 776.389H667.616V591.124C667.616 540.33 648.315 511.944 608.111 511.944C564.375 511.944 541.524 541.484 541.524 591.124V776.389H436.698V423.463H541.524V471.002C541.524 471.002 573.043 412.681 647.936 412.681C722.795 412.681 776.389 458.394 776.389 552.938V776.389ZM311.64 377.25C275.934 377.25 247 348.089 247 312.125C247 276.161 275.934 247 311.64 247C347.346 247 376.263 276.161 376.263 312.125C376.263 348.089 347.346 377.25 311.64 377.25ZM257.512 776.389H366.819V423.463H257.512V776.389Z" fill="white"/>
</svg>
