<svg width="1024" height="1024" viewBox="0 0 1024 1024" fill="none" xmlns="http://www.w3.org/2000/svg">
<rect width="1024" height="1024" fill="#5865F2"/>
<path d="M741.282 298.88C698.467 278.848 652.688 264.29 604.827 256C598.949 266.627 592.082 280.921 587.347 292.291C536.469 284.64 486.06 284.64 436.118 292.291C431.384 280.921 424.361 266.627 418.431 256C370.518 264.29 324.686 278.901 281.871 298.986C195.514 429.483 172.104 556.739 183.809 682.189C241.086 724.961 296.594 750.945 351.165 767.947C364.639 749.403 376.656 729.691 387.008 708.915C367.292 701.423 348.408 692.178 330.565 681.445C335.298 677.938 339.929 674.272 344.402 670.499C453.233 721.402 571.48 721.402 679.011 670.499C683.537 674.272 688.167 677.938 692.849 681.445C674.953 692.231 656.017 701.476 636.301 708.969C646.653 729.691 658.618 749.457 672.144 768C726.768 750.997 782.328 725.015 839.604 682.189C853.339 536.761 816.143 410.674 741.282 298.88ZM401.835 605.038C369.165 605.038 342.373 574.539 342.373 537.398C342.373 500.258 368.593 469.706 401.835 469.706C435.078 469.706 461.869 500.204 461.297 537.398C461.349 574.539 435.078 605.038 401.835 605.038ZM621.578 605.038C588.908 605.038 562.116 574.539 562.116 537.398C562.116 500.258 588.335 469.706 621.578 469.706C654.82 469.706 681.612 500.204 681.04 537.398C681.04 574.539 654.82 605.038 621.578 605.038Z" fill="white"/>
</svg>
